<svg xmlns="http://www.w3.org/2000/svg" viewBox="0 0 24 24" fill="none" stroke="#e8a838" stroke-width="1.2" stroke-linecap="round" stroke-linejoin="round">
  <!-- Caduceus — Hermes' winged staff. -->
  <circle cx="12" cy="2.9" r="1.05" fill="#e8a838" stroke="none"/>
  <line x1="12" y1="4" x2="12" y2="21.2"/>
  <!-- wings -->
  <path d="M12 5.1 C 9.6 3.7 7 3.5 4.7 4.7 C 7 5.1 9.6 5.5 12 6.1"/>
  <path d="M12 5.1 C 14.4 3.7 17 3.5 19.3 4.7 C 17 5.1 14.4 5.5 12 6.1"/>
  <!-- two intertwined snakes -->
  <path d="M12 6.6 C 15 8 15 10.5 12 12 C 9 13.5 9 16 12 17.5 C 15 19 15 20.2 12 21.2"/>
  <path d="M12 6.6 C 9 8 9 10.5 12 12 C 15 13.5 15 16 12 17.5 C 9 19 9 20.2 12 21.2"/>
</svg>
